<?xml version="1.0" encoding="utf-8"?>
<!-- Generator: Adobe Illustrator 15.1.0, SVG Export Plug-In . SVG Version: 6.00 Build 0)  -->
<!DOCTYPE svg PUBLIC "-//W3C//DTD SVG 1.1//EN" "http://www.w3.org/Graphics/SVG/1.1/DTD/svg11.dtd">
<svg version="1.1" id="Layer_1" xmlns="http://www.w3.org/2000/svg" xmlns:xlink="http://www.w3.org/1999/xlink" x="0px" y="0px"
	 width="228.5px" height="52.5px" viewBox="0 0 228.5 52.5" enable-background="new 0 0 228.5 52.5" xml:space="preserve">
<g>
	<path fill="#2564AE" d="M99.708,22.656c-0.076,0.052-0.178,0.079-0.306,0.079c-0.145,0-0.319-0.079-0.528-0.233
		c-0.208-0.156-0.48-0.331-0.816-0.522s-0.756-0.366-1.26-0.522s-1.124-0.233-1.86-0.233c-0.889,0-1.7,0.154-2.436,0.462
		c-0.736,0.307-1.371,0.754-1.902,1.337c-0.533,0.584-0.947,1.297-1.243,2.137c-0.295,0.84-0.443,1.787-0.443,2.843
		c0,1.072,0.155,2.027,0.462,2.867c0.308,0.842,0.728,1.551,1.26,2.131c0.532,0.58,1.159,1.021,1.883,1.326
		c0.724,0.303,1.507,0.457,2.347,0.457c0.513,0,0.975-0.031,1.386-0.092s0.793-0.152,1.141-0.281s0.672-0.289,0.971-0.486
		c0.3-0.195,0.598-0.43,0.894-0.701c0.136-0.119,0.272-0.18,0.408-0.18c0.127,0,0.24,0.051,0.336,0.156l0.924,0.996
		c-0.704,0.814-1.557,1.451-2.562,1.906c-1.003,0.457-2.218,0.686-3.643,0.686c-1.231,0-2.352-0.215-3.359-0.643
		s-1.868-1.027-2.581-1.801c-0.712-0.771-1.263-1.697-1.655-2.777c-0.393-1.08-0.588-2.27-0.588-3.564
		c0-1.296,0.203-2.484,0.611-3.564s0.981-2.008,1.722-2.784c0.739-0.776,1.626-1.377,2.658-1.806
		c1.031-0.428,2.172-0.642,3.42-0.642c1.225,0,2.305,0.195,3.241,0.588c0.936,0.392,1.759,0.924,2.471,1.596l-0.768,1.068
		C99.846,22.538,99.786,22.605,99.708,22.656L99.708,22.656z M113.629,33.104c-0.269,0.768-0.655,1.422-1.159,1.967
		c-0.504,0.543-1.112,0.963-1.825,1.254c-0.71,0.291-1.512,0.438-2.398,0.438c-0.897,0-1.702-0.146-2.419-0.438
		c-0.715-0.291-1.325-0.711-1.83-1.254c-0.504-0.545-0.89-1.199-1.157-1.967c-0.269-0.768-0.403-1.633-0.403-2.594
		c0-0.951,0.135-1.812,0.403-2.586c0.267-0.771,0.653-1.43,1.157-1.974c0.504-0.544,1.114-0.964,1.83-1.26
		c0.717-0.296,1.522-0.443,2.419-0.443c0.887,0,1.688,0.147,2.398,0.443c0.712,0.295,1.32,0.716,1.825,1.26
		c0.504,0.544,0.89,1.203,1.159,1.974c0.268,0.773,0.402,1.635,0.402,2.586C114.031,31.471,113.897,32.336,113.629,33.104
		L113.629,33.104z M110.935,27.137c-0.593-0.806-1.488-1.21-2.688-1.21c-0.608,0-1.139,0.104-1.591,0.312
		c-0.452,0.208-0.828,0.508-1.127,0.898c-0.301,0.395-0.524,0.875-0.672,1.447s-0.222,1.217-0.222,1.938
		c0,1.441,0.298,2.562,0.894,3.367c0.596,0.803,1.501,1.205,2.718,1.205c1.199,0,2.095-0.402,2.688-1.205
		c0.591-0.805,0.887-1.926,0.887-3.367C111.822,29.074,111.526,27.947,110.935,27.137L110.935,27.137z M125.455,36.594
		c-0.305,0-0.496-0.148-0.576-0.443l-0.168-1.309c-0.527,0.584-1.121,1.055-1.777,1.41c-0.656,0.357-1.406,0.535-2.256,0.535
		c-0.662,0-1.25-0.111-1.756-0.332c-0.51-0.219-0.936-0.529-1.279-0.928c-0.344-0.4-0.604-0.887-0.773-1.453
		c-0.172-0.568-0.26-1.197-0.26-1.883v-7.753h2.137v7.753c0,0.918,0.211,1.631,0.631,2.135s1.061,0.756,1.924,0.756
		c0.635,0,1.225-0.15,1.771-0.451c0.547-0.299,1.055-0.713,1.52-1.24v-8.953h2.135v12.156H125.455L125.455,36.594z M136.818,26.167
		c-0.049,0.2-0.168,0.299-0.361,0.299c-0.109,0-0.275-0.023-0.49-0.07c-0.217-0.049-0.459-0.072-0.732-0.072
		c-0.385,0-0.725,0.056-1.025,0.168c-0.301,0.111-0.568,0.277-0.805,0.497c-0.236,0.219-0.447,0.493-0.635,0.817
		c-0.189,0.324-0.359,0.693-0.512,1.109v7.68h-2.146V24.438h1.223c0.232,0,0.391,0.043,0.48,0.133
		c0.088,0.087,0.148,0.24,0.18,0.455l0.145,1.848c0.383-0.832,0.855-1.481,1.416-1.948c0.559-0.469,1.244-0.702,2.051-0.702
		c0.258,0,0.502,0.026,0.74,0.084c0.234,0.055,0.445,0.143,0.629,0.264L136.818,26.167L136.818,26.167z M145.482,26.706
		c-0.119,0-0.256-0.043-0.408-0.131c-0.152-0.089-0.338-0.187-0.559-0.294c-0.219-0.109-0.482-0.208-0.785-0.301
		c-0.305-0.092-0.664-0.138-1.08-0.138c-0.359,0-0.684,0.045-0.971,0.138c-0.289,0.092-0.535,0.218-0.74,0.378
		c-0.203,0.16-0.359,0.346-0.467,0.558c-0.107,0.213-0.162,0.442-0.162,0.69c0,0.312,0.09,0.574,0.27,0.779
		c0.18,0.209,0.418,0.389,0.715,0.541c0.295,0.152,0.631,0.287,1.008,0.402c0.375,0.115,0.762,0.24,1.156,0.373
		c0.396,0.131,0.783,0.277,1.16,0.436c0.375,0.162,0.711,0.361,1.008,0.602c0.295,0.24,0.533,0.533,0.713,0.881
		c0.18,0.35,0.271,0.768,0.271,1.256c0,0.559-0.102,1.078-0.301,1.553c-0.199,0.477-0.496,0.889-0.889,1.236
		s-0.873,0.621-1.439,0.822c-0.568,0.199-1.223,0.301-1.967,0.301c-0.85,0-1.617-0.139-2.305-0.416
		c-0.688-0.275-1.273-0.629-1.754-1.061l0.504-0.816c0.064-0.105,0.143-0.184,0.229-0.24c0.088-0.057,0.201-0.084,0.336-0.084
		c0.145,0,0.297,0.057,0.457,0.168s0.354,0.236,0.582,0.373c0.229,0.135,0.506,0.26,0.834,0.371s0.734,0.168,1.225,0.168
		c0.416,0,0.779-0.055,1.092-0.162s0.57-0.254,0.779-0.438c0.207-0.184,0.363-0.396,0.461-0.635c0.102-0.24,0.152-0.498,0.152-0.77
		c0-0.336-0.092-0.613-0.271-0.834s-0.418-0.408-0.713-0.564c-0.297-0.156-0.635-0.293-1.016-0.408
		c-0.379-0.115-0.768-0.236-1.164-0.365c-0.395-0.129-0.783-0.275-1.162-0.438c-0.381-0.164-0.719-0.369-1.016-0.619
		c-0.295-0.248-0.533-0.553-0.713-0.918c-0.18-0.363-0.271-0.805-0.271-1.326c0-0.463,0.096-0.91,0.289-1.336
		c0.191-0.429,0.473-0.805,0.84-1.129c0.369-0.324,0.82-0.581,1.357-0.774c0.535-0.191,1.146-0.287,1.836-0.287
		c0.799,0,1.516,0.126,2.152,0.378s1.188,0.598,1.65,1.038l-0.48,0.779C145.83,26.619,145.682,26.706,145.482,26.706L145.482,26.706
		z M159.188,30.354c-0.072,0.113-0.209,0.168-0.408,0.168h-8.125c0.023,0.77,0.129,1.438,0.318,2.006
		c0.188,0.566,0.449,1.041,0.785,1.42c0.336,0.381,0.736,0.666,1.199,0.852c0.467,0.189,0.984,0.283,1.561,0.283
		c0.537,0,0.998-0.062,1.387-0.186s0.723-0.258,1.002-0.402c0.279-0.143,0.514-0.277,0.701-0.402
		c0.188-0.123,0.352-0.186,0.488-0.186c0.174,0,0.311,0.068,0.408,0.205l0.6,0.779c-0.264,0.32-0.582,0.598-0.949,0.832
		c-0.369,0.238-0.762,0.432-1.182,0.584c-0.42,0.15-0.855,0.266-1.303,0.342s-0.891,0.113-1.332,0.113
		c-0.84,0-1.613-0.141-2.32-0.426c-0.709-0.283-1.32-0.699-1.836-1.248c-0.516-0.547-0.92-1.227-1.207-2.033
		c-0.289-0.809-0.432-1.736-0.432-2.785c0-0.848,0.129-1.639,0.389-2.377c0.262-0.734,0.635-1.372,1.123-1.913
		c0.486-0.539,1.084-0.964,1.787-1.271c0.705-0.308,1.498-0.462,2.375-0.462c0.73,0,1.404,0.123,2.023,0.366
		c0.619,0.243,1.156,0.596,1.607,1.055c0.451,0.46,0.807,1.028,1.062,1.706c0.256,0.676,0.385,1.445,0.385,2.309
		C159.295,30.018,159.26,30.242,159.188,30.354L159.188,30.354z M157.164,27.828c-0.139-0.412-0.344-0.768-0.611-1.069
		c-0.27-0.299-0.596-0.531-0.979-0.695c-0.385-0.163-0.82-0.245-1.309-0.245c-1.023,0-1.834,0.297-2.428,0.894
		c-0.598,0.596-0.969,1.42-1.111,2.477h6.648C157.375,28.695,157.303,28.24,157.164,27.828L157.164,27.828z M165.203,25.819
		c0.389,0.223,0.83,0.418,1.322,0.581c0.492,0.165,0.996,0.334,1.512,0.511c0.516,0.177,1.02,0.373,1.512,0.593
		s0.932,0.498,1.32,0.834c0.387,0.336,0.699,0.748,0.936,1.236c0.234,0.488,0.354,1.088,0.354,1.801
		c0,0.752-0.129,1.457-0.385,2.117c-0.254,0.66-0.629,1.232-1.121,1.723c-0.492,0.486-1.096,0.871-1.811,1.152
		c-0.719,0.279-1.531,0.42-2.443,0.42c-1.121,0-2.137-0.203-3.049-0.607c-0.91-0.402-1.691-0.951-2.338-1.637l0.672-1.104
		c0.062-0.09,0.141-0.164,0.232-0.223c0.094-0.061,0.193-0.09,0.307-0.09c0.104,0,0.221,0.041,0.354,0.125
		c0.131,0.084,0.283,0.189,0.451,0.318c0.168,0.127,0.359,0.268,0.576,0.42c0.215,0.152,0.461,0.291,0.736,0.42
		s0.59,0.234,0.943,0.318c0.352,0.084,0.748,0.127,1.188,0.127c0.551,0,1.043-0.078,1.475-0.229c0.434-0.154,0.799-0.367,1.1-0.643
		c0.301-0.277,0.529-0.605,0.689-0.99c0.16-0.383,0.24-0.812,0.24-1.283c0-0.52-0.119-0.947-0.354-1.279
		c-0.238-0.33-0.547-0.609-0.932-0.834c-0.383-0.223-0.822-0.414-1.32-0.568c-0.496-0.156-1-0.318-1.512-0.48
		c-0.51-0.164-1.014-0.355-1.512-0.572c-0.496-0.215-0.936-0.494-1.318-0.84c-0.385-0.342-0.695-0.772-0.932-1.288
		c-0.236-0.518-0.354-1.154-0.354-1.915c0-0.608,0.117-1.196,0.354-1.764s0.58-1.072,1.031-1.512
		c0.453-0.44,1.008-0.792,1.668-1.057c0.662-0.264,1.418-0.395,2.275-0.395c0.959,0,1.834,0.151,2.623,0.455
		c0.787,0.304,1.48,0.745,2.08,1.321l-0.564,1.104c-0.072,0.121-0.148,0.21-0.232,0.271s-0.188,0.089-0.307,0.089
		c-0.135,0-0.295-0.067-0.48-0.204c-0.182-0.136-0.412-0.286-0.689-0.45c-0.275-0.163-0.609-0.314-0.994-0.45
		c-0.391-0.136-0.859-0.203-1.412-0.203c-0.52,0-0.977,0.07-1.373,0.21c-0.396,0.139-0.729,0.329-0.998,0.569
		c-0.266,0.24-0.467,0.522-0.604,0.847s-0.205,0.674-0.205,1.05c0,0.479,0.117,0.876,0.354,1.194
		C164.504,25.325,164.816,25.594,165.203,25.819L165.203,25.819z M177.811,33.523c0,0.512,0.123,0.891,0.373,1.139
		c0.246,0.248,0.566,0.373,0.959,0.373c0.223,0,0.418-0.031,0.58-0.092c0.166-0.061,0.309-0.125,0.428-0.197
		s0.221-0.139,0.305-0.199c0.084-0.059,0.158-0.088,0.223-0.088c0.113,0,0.211,0.066,0.301,0.203l0.623,1.02
		c-0.367,0.344-0.811,0.615-1.332,0.811c-0.52,0.195-1.055,0.295-1.607,0.295c-0.959,0-1.697-0.27-2.215-0.805
		c-0.516-0.537-0.771-1.309-0.771-2.316v-7.439h-1.465c-0.129,0-0.236-0.039-0.324-0.114c-0.088-0.077-0.133-0.195-0.133-0.354
		v-0.852l1.992-0.252l0.492-3.756c0.025-0.12,0.078-0.218,0.162-0.294s0.193-0.114,0.33-0.114h1.08v4.188h3.516v1.549h-3.516V33.523
		L177.811,33.523z M194.039,33.104c-0.268,0.768-0.652,1.422-1.156,1.967c-0.504,0.543-1.113,0.963-1.824,1.254
		c-0.713,0.291-1.514,0.438-2.4,0.438c-0.896,0-1.703-0.146-2.418-0.438c-0.717-0.291-1.326-0.711-1.83-1.254
		c-0.504-0.545-0.891-1.199-1.158-1.967s-0.402-1.633-0.402-2.594c0-0.951,0.135-1.812,0.402-2.586
		c0.268-0.771,0.654-1.43,1.158-1.974s1.113-0.964,1.83-1.26c0.715-0.296,1.521-0.443,2.418-0.443c0.887,0,1.688,0.147,2.4,0.443
		c0.711,0.295,1.32,0.716,1.824,1.26s0.889,1.203,1.156,1.974c0.27,0.773,0.404,1.635,0.404,2.586
		C194.443,31.471,194.309,32.336,194.039,33.104L194.039,33.104z M191.346,27.137c-0.592-0.806-1.488-1.21-2.688-1.21
		c-0.607,0-1.139,0.104-1.59,0.312c-0.453,0.208-0.828,0.508-1.127,0.898c-0.301,0.395-0.525,0.875-0.672,1.447
		c-0.15,0.572-0.225,1.217-0.225,1.938c0,1.441,0.299,2.562,0.896,3.367c0.594,0.803,1.502,1.205,2.717,1.205
		c1.199,0,2.096-0.402,2.688-1.205c0.592-0.805,0.889-1.926,0.889-3.367C192.234,29.074,191.938,27.947,191.346,27.137
		L191.346,27.137z M203.85,26.167c-0.049,0.2-0.168,0.299-0.361,0.299c-0.109,0-0.275-0.023-0.49-0.07
		c-0.217-0.049-0.461-0.072-0.732-0.072c-0.385,0-0.725,0.056-1.025,0.168c-0.301,0.111-0.568,0.277-0.805,0.497
		c-0.236,0.219-0.447,0.493-0.635,0.817c-0.189,0.324-0.359,0.693-0.512,1.109v7.68h-2.146V24.438h1.223
		c0.232,0,0.393,0.043,0.48,0.133c0.088,0.087,0.148,0.24,0.18,0.455l0.145,1.848c0.383-0.832,0.855-1.481,1.416-1.948
		c0.559-0.469,1.244-0.702,2.051-0.702c0.258,0,0.502,0.026,0.74,0.084c0.234,0.055,0.445,0.143,0.629,0.264L203.85,26.167
		L203.85,26.167z M220.217,36.594v-7.74c0-0.951-0.207-1.674-0.623-2.165c-0.416-0.492-1.016-0.739-1.801-0.739
		c-0.352,0-0.686,0.062-1,0.187c-0.316,0.124-0.596,0.306-0.836,0.546s-0.43,0.542-0.57,0.906c-0.139,0.363-0.209,0.785-0.209,1.266
		v7.74h-2.148v-7.74c0-0.975-0.195-1.703-0.588-2.183c-0.393-0.48-0.965-0.721-1.715-0.721c-0.527,0-1.018,0.143-1.465,0.427
		s-0.861,0.67-1.236,1.157v9.061h-2.148V24.438h1.285c0.303,0,0.492,0.147,0.564,0.445l0.156,1.246
		c0.445-0.551,0.951-1.003,1.512-1.355c0.559-0.351,1.207-0.527,1.943-0.527c0.816,0,1.479,0.229,1.984,0.684
		c0.51,0.457,0.877,1.072,1.1,1.848c0.176-0.439,0.4-0.82,0.678-1.139c0.275-0.321,0.586-0.585,0.93-0.793
		c0.344-0.208,0.711-0.359,1.1-0.455c0.387-0.098,0.779-0.145,1.18-0.145c0.641,0,1.211,0.103,1.711,0.306
		c0.5,0.205,0.924,0.502,1.271,0.894c0.35,0.393,0.615,0.875,0.799,1.446c0.184,0.573,0.275,1.227,0.275,1.961v7.74H220.217
		L220.217,36.594z"/>
	<path fill-rule="evenodd" clip-rule="evenodd" fill="#2564AE" d="M37.705,7.372c0.544,0,1.087,0,1.631,0
		c5.429,0.617,8.739,3.353,10.748,7.39c5.809,0.153,9.143,3.763,8.445,9.787c3.767,1.382,6.987,4.37,7.389,8.924
		c0.506,5.758-3.338,10.951-9.116,11.514c-3.263,0.318-6.839,0-10.364,0c-6.706,0-13.913,0-20.728,0c-3.589,0-7.166,0.299-10.363,0
		c-5.353-0.498-8.432-4.586-9.212-9.596c0-0.512,0-1.023,0-1.533c0.733-5.281,3.636-8.392,8.54-9.501
		c-0.148-6.094,5.894-9.93,11.515-7.676C27.948,11.497,31.486,8.093,37.705,7.372z M29.261,29.441c1.951,0,3.902,0,5.853,0
		c-1.054,4.225-2.429,8.639-3.263,12.762c3.696-4.865,7.62-10.084,11.323-14.871c0.197-0.256,0.637-0.574,0.48-0.96
		c-2.016,0-4.031,0-6.045,0c1.125-4.186,2.589-8.543,3.455-12.667C37.208,19.028,33.076,24.078,29.261,29.441z"/>
</g>
</svg>
